<?xml version="1.0" ?><!DOCTYPE svg  PUBLIC '-//W3C//DTD SVG 1.1//EN'  'http://www.w3.org/Graphics/SVG/1.1/DTD/svg11.dtd'><svg enable-background="new 0 0 100 100" height="100px" id="Layer_1" version="1.1" viewBox="0 0 100 100" width="100px" xml:space="preserve" xmlns="http://www.w3.org/2000/svg" xmlns:xlink="http://www.w3.org/1999/xlink"><g id="Bin"><g><path d="M66.874,93.532h-33.76c-5.897,0-10.699-6.089-10.726-13.589l-2.241-40.657c0-6.361,5.147-11.535,11.473-11.535h36.747    c6.326,0,11.473,5.146,11.473,11.473l-0.004,0.126L77.6,79.973C77.572,87.456,72.771,93.532,66.874,93.532z M24.737,39.228    l2.24,40.651c0,4.912,2.811,9.064,6.137,9.064h33.76c3.327,0,6.137-4.139,6.137-9.035l0.003-0.125l2.236-40.619    c-0.031-3.767-3.107-6.824-6.883-6.824H31.62C27.844,32.34,24.768,35.425,24.737,39.228z"/></g><g><path d="M79.059,30.811H20.163V22.52c0-4.628,4.146-8.535,9.051-8.535h41.56c4.725,0,8.287,3.669,8.287,8.535v8.291H79.059z     M24.752,26.223h49.719V22.52c0-2.323-1.521-3.946-3.697-3.946h-41.56c-2.377,0-4.462,1.844-4.462,3.946V26.223z"/></g><g><path d="M66.247,16.278h-4.589c0-2.88-2.342-5.223-5.221-5.223H44.315c-2.879,0-5.221,2.343-5.221,5.223h-4.59    c0-5.41,4.402-9.811,9.811-9.811h12.123C61.848,6.468,66.247,10.868,66.247,16.278z"/></g><g><rect height="36.717" width="2.294" x="49.229" y="43.049"/></g><g><rect height="36.717" width="2.295" x="36.99" y="43.049"/></g><g><rect height="36.717" width="2.295" x="61.467" y="43.049"/></g></g></svg>